<svg id="svg2" xmlns="http://www.w3.org/2000/svg" viewBox="0 0 903.85 903.95"><defs><style>.cls-1{fill:#5e3b19;}.cls-2{fill:#fff;}.cls-3{fill:#390;}</style></defs><title>luckyblockcoin</title><path class="cls-1" d="M587.23,39.54c-242.09-60.37-487.33,87-547.66,329.16s87,487.37,329,547.73,487.39-87,547.76-329.11S829.38,99.91,587.23,39.54Zm89.93,374.06c-6.51,44-30.92,65.34-63.32,72.81,44.49,23.16,67.13,58.68,45.57,120.27-26.77,76.48-90.35,82.94-174.91,66.93L464,755.86l-49.59-12.36,20.25-81.14c-12.85-3.19-26-6.58-39.52-10.26l-20.32,81.53-49.53-12.36,20.52-82.4c-11.58-3-23.35-6.12-35.35-9.12L245.9,613.66l24.62-56.76s36.54,9.72,36,9c14,3.48,20.27-5.68,22.73-11.78l32.43-130,0.08-.35,23.14-92.81c0.61-10.54-3-23.83-23.11-28.84,0.78-.52-36-9-36-9l13.19-53,68.39,17.08-0.06.25c10.28,2.56,20.88,5,31.67,7.44l20.32-81.44,49.56,12.36L489,275.71c13.3,3,26.69,6.1,39.73,9.35l19.77-79.32,49.59,12.36-20.31,81.47C640.37,321.14,686.16,353.47,677.16,413.61Z" transform="translate(-26.03 -26.02)"/><circle class="cls-2" cx="451.92" cy="451.98" r="342.36"/><g id="layer1"><g id="g2834"><rect id="rect2816" class="cls-3" x="362.17" y="187.32" width="228.57" height="228.57" transform="translate(-99.75 399.23) rotate(-45)"/><path id="path2820" class="cls-3" d="M514.51,218.45A117.14,117.14,0,1,1,397.36,101.31,117.14,117.14,0,0,1,514.51,218.45Z" transform="translate(-26.03 -26.02)"/><path id="path2822" class="cls-3" d="M674.2,217A117.14,117.14,0,1,1,557.05,99.81,117.14,117.14,0,0,1,674.2,217Z" transform="translate(-26.03 -26.02)"/></g><g id="g2839"><rect id="rect2841" class="cls-3" x="362.17" y="540.1" width="228.57" height="228.57" transform="translate(-349.2 502.55) rotate(-45)"/><path id="path2843" class="cls-3" d="M514.51,737.54A117.14,117.14,0,1,0,397.36,854.68,117.14,117.14,0,0,0,514.51,737.54Z" transform="translate(-26.03 -26.02)"/><path id="path2845" class="cls-3" d="M674.2,739A117.14,117.14,0,1,0,557.05,856.18,117.14,117.14,0,0,0,674.2,739Z" transform="translate(-26.03 -26.02)"/></g><g id="g2859"><rect id="rect2861" class="cls-3" x="539.31" y="362.96" width="228.57" height="228.57" transform="translate(-172.06 575.92) rotate(-45)"/><path id="path2863" class="cls-3" d="M736.75,515.29A117.14,117.14,0,1,1,853.89,398.15,117.14,117.14,0,0,1,736.75,515.29Z" transform="translate(-26.03 -26.02)"/><path id="path2865" class="cls-3" d="M738.25,675A117.14,117.14,0,1,1,855.39,557.84,117.14,117.14,0,0,1,738.25,675Z" transform="translate(-26.03 -26.02)"/></g><g id="g2867"><rect id="rect2869" class="cls-3" x="186.53" y="362.96" width="228.57" height="228.57" transform="translate(-275.39 326.48) rotate(-45)"/><path id="path2871" class="cls-3" d="M217.67,515.29A117.14,117.14,0,1,0,100.52,398.15,117.14,117.14,0,0,0,217.67,515.29Z" transform="translate(-26.03 -26.02)"/><path id="path2873" class="cls-3" d="M216.17,675A117.14,117.14,0,1,0,99,557.84,117.14,117.14,0,0,0,216.17,675Z" transform="translate(-26.03 -26.02)"/></g></g></svg>